<?xml version="1.0" encoding="utf-8"?>
<!-- Generator: SketchAPI 2022.10.24.12 https://api.sketch.io -->
<svg version="1.1" xmlns="http://www.w3.org/2000/svg" xmlns:xlink="http://www.w3.org/1999/xlink" xmlns:sketchjs="https://sketch.io/dtd/" width="480" height="480" viewBox="0 0 480 480">
<path style="fill: none; stroke: #335EBB; mix-blend-mode: source-over; stroke-dasharray: none; stroke-dashoffset: 0; stroke-linecap: round; stroke-linejoin: round; stroke-miterlimit: 4; stroke-opacity: 1; stroke-width: 32;" sketchjs:tool="pencil" d="M0 82.93 C0 82.93 0 82.93 0 82.93 0 82.93 0 82.93 0 82.93 0 82.93 0.599 79.048 1.35 76.86 2.312 74.057 3.856 70.849 5.72 67.64 7.976 63.756 11.004 59.526 14.28 55.39 17.981 50.717 22.625 45.515 27 41.17 31.13 37.068 35.437 33.514 39.75 29.92 43.986 26.39 48.076 22.844 52.64 19.78 57.281 16.664 62.596 13.915 67.39 11.41 71.793 9.11 76.017 6.866 80.29 5.23 84.257 3.711 88.429 2.592 92.12 1.77 95.278 1.067 98.144 0.673 101.04 0.39 103.761 0.124 106.349 -0.109 109 0.06 111.682 0.231 114.468 0.763 117.04 1.43 119.516 2.072 121.854 2.74 124.17 3.94 126.706 5.254 129.256 7.327 131.56 9.19 133.785 10.988 135.867 12.841 137.79 14.9 139.726 16.972 141.52 19.212 143.13 21.59 144.77 24.013 146.355 26.595 147.52 29.32 148.7 32.081 149.469 35.11 150.14 38.06 150.807 40.993 151.254 44.076 151.54 46.97 151.809 49.69 152.072 51.963 151.87 54.93 151.609 58.758 151.022 63.502 149.53 67.98 147.781 73.228 144.596 78.788 141.35 84.25 137.769 90.277 133.308 96.161 128.71 102.47 123.562 109.534 117.37 117.28 111.82 124.55 106.411 131.635 101.056 139.085 95.82 145.55 91.122 151.351 86.068 156.787 81.96 161.66 78.601 165.645 75.647 169.532 72.91 172.62 70.797 175.004 68.696 177.076 67.07 178.76 65.919 179.952 64.866 180.896 64.1 181.79 63.552 182.429 62.8 183.53 62.8 183.53 62.8 183.53 62.8 183.53 62.8 183.53 62.8 183.53 62.8 183.53 62.8 183.53 62.8 183.53 64.778 183.822 66.01 183.74 67.716 183.626 69.906 182.992 72.06 182.52 74.55 181.974 77.191 181.241 80.08 180.62 83.444 179.897 87.379 178.928 91.05 178.5 94.686 178.076 98.266 178.141 102 178.05 105.908 177.955 110.087 177.978 114 177.96 117.746 177.943 121.428 177.671 125 177.94 128.431 178.199 132.013 178.592 135.03 179.48 137.695 180.264 139.978 181.525 142.26 182.71 144.433 183.839 146.607 185.091 148.43 186.39 150.039 187.537 151.411 188.848 152.71 190 153.84 191.002 154.997 191.907 155.81 192.89 156.491 193.713 156.915 194.614 157.39 195.4 157.802 196.082 158.212 196.611 158.51 197.33 158.844 198.135 159.043 199.039 159.23 200.03 159.452 201.208 159.565 202.637 159.67 203.95 159.775 205.27 159.815 206.601 159.86 207.93 159.905 209.261 160.108 210.6 159.94 211.93 159.767 213.303 159.243 214.543 158.8 216.04 158.26 217.862 157.751 220.085 156.9 222.07 155.996 224.178 154.744 226.189 153.45 228.31 152.03 230.637 150.469 233.027 148.67 235.44 146.67 238.122 144.299 240.94 141.91 243.62 139.445 246.386 136.601 249.05 134.08 251.77 131.636 254.407 129.505 257.284 127 259.69 124.576 262.019 121.858 264.181 119.32 266.02 117.039 267.672 114.817 268.922 112.53 270.32 110.24 271.719 107.828 273.164 105.59 274.41 103.547 275.547 101.649 276.616 99.65 277.53 97.714 278.415 95.747 278.991 93.79 279.83 91.771 280.696 89.746 281.809 87.72 282.66 85.753 283.487 83.798 284.278 81.81 284.88 79.864 285.469 77.804 285.831 75.92 286.25 74.19 286.635 72.501 286.959 70.93 287.31 69.519 287.625 68.334 288.025 66.92 288.25 65.37 288.496 63.548 288.574 61.99 288.67 60.591 288.756 59.405 288.784 58 288.82 56.427 288.861 54.667 288.873 53 288.89 51.333 288.907 49.741 289.01 48 288.92 46.084 288.821 43.781 288.53 41.98 288.26 40.497 288.037 39.366 287.764 37.95 287.49 36.37 287.185 34.401 286.965 32.94 286.51 31.734 286.134 30.692 285.541 29.75 285.12 28.995 284.783 28.397 284.576 27.72 284.19 26.97 283.763 26.082 283.081 25.47 282.63 25.033 282.308 24.646 282.035 24.37 281.77 24.175 281.583 24.088 281.402 23.92 281.24 23.749 281.075 23.35 280.79 23.35 280.79 " transform="matrix(1,0,0,1,68,103.0688422773492)"/>
<path style="fill: none; stroke: #335EBB; mix-blend-mode: source-over; stroke-dasharray: none; stroke-dashoffset: 0; stroke-linecap: round; stroke-linejoin: round; stroke-miterlimit: 4; stroke-opacity: 1; stroke-width: 32;" sketchjs:tool="pencil" d="M45.57 0 C45.57 0 45.57 0 45.57 0 45.57 0 45.613 1.132 45.57 2 45.489 3.629 45.389 6.434 44.87 9.01 44.202 12.321 42.635 16.279 41.45 20.13 40.169 24.294 38.994 28.664 37.45 33.13 35.767 37.996 33.611 43.187 31.65 48.2 29.688 53.214 27.782 58.139 25.68 63.21 23.494 68.483 20.835 74.064 18.76 79.25 16.846 84.033 15.344 88.728 13.61 93.19 11.989 97.362 10.115 101.489 8.7 105.22 7.491 108.407 6.487 111.483 5.56 114.17 4.803 116.364 4.212 118.256 3.53 120.16 2.901 121.915 2.166 123.729 1.63 125.19 1.219 126.31 0.789 127.454 0.57 128.17 0.449 128.564 0.401 128.787 0.33 129.1 0.258 129.416 0.195 129.738 0.14 130.06 0.085 130.382 0 131.03 0 131.03 " transform="matrix(1,0,0,1,64.43205566877725,204)"/>
<path style="fill: none; stroke: #335EBB; mix-blend-mode: source-over; stroke-dasharray: none; stroke-dashoffset: 0; stroke-linecap: round; stroke-linejoin: round; stroke-miterlimit: 4; stroke-opacity: 1; stroke-width: 32;" sketchjs:tool="pencil" d="M54.03 95.07 C54.03 95.07 54.03 95.07 54.03 95.07 54.03 95.07 55.185 95.07 56.03 95.07 57.494 95.07 59.782 95.242 62.03 95.07 64.954 94.847 68.663 94.327 72.06 93.53 75.702 92.676 79.451 91.559 83.17 89.99 87.221 88.281 91.341 85.714 95.38 83.48 99.427 81.241 103.678 79.18 107.43 76.57 111.115 74.006 114.392 70.689 117.72 67.99 120.79 65.5 124.025 63.349 126.67 60.93 129.043 58.76 131.004 56.438 132.97 54.26 134.784 52.251 136.742 50.271 138.07 48.35 139.162 46.77 139.799 45.2 140.59 43.71 141.318 42.339 142.07 41.072 142.65 39.74 143.204 38.468 143.719 36.964 144.02 35.9 144.227 35.168 144.314 34.648 144.42 34.01 144.528 33.365 144.655 32.772 144.66 32.05 144.667 31.159 144.502 30.058 144.34 29.06 144.174 28.041 144.003 27.014 143.67 26 143.319 24.93 142.843 23.924 142.25 22.81 141.544 21.485 140.545 19.899 139.62 18.62 138.767 17.44 137.864 16.435 136.94 15.38 136.014 14.322 135.123 13.296 134.07 12.28 132.927 11.177 131.58 10.087 130.3 9.03 129.017 7.971 127.705 6.85 126.38 5.93 125.133 5.063 123.96 4.269 122.59 3.63 121.137 2.953 119.38 2.501 117.87 2.03 116.498 1.602 115.313 1.171 113.91 0.9 112.376 0.604 110.56 0.506 109.01 0.39 107.616 0.286 106.433 0.254 105.03 0.21 103.459 0.16 101.773 0.14 100.03 0.12 98.121 0.098 96.024 -0.122 94.03 0.09 92 0.306 90.052 0.921 87.96 1.43 85.697 1.981 83.26 2.548 80.93 3.3 78.549 4.069 76.184 5.074 73.83 6.01 71.474 6.947 69.045 7.925 66.8 8.92 64.693 9.854 62.753 10.818 60.74 11.79 58.726 12.762 56.521 13.859 54.72 14.75 53.25 15.477 52.123 15.997 50.72 16.74 49.117 17.589 47.227 18.619 45.64 19.6 44.173 20.507 42.881 21.539 41.51 22.39 40.215 23.194 38.846 23.773 37.64 24.59 36.471 25.382 35.432 26.292 34.37 27.2 33.302 28.112 32.262 28.929 31.25 30.05 30.069 31.358 29.029 33.196 27.82 34.67 26.624 36.128 25.296 37.307 24.04 38.85 22.622 40.592 21.2 42.794 19.8 44.65 18.478 46.402 17.08 48.007 15.87 49.7 14.716 51.315 13.723 52.934 12.68 54.57 11.637 56.207 10.626 57.864 9.61 59.52 8.593 61.178 7.363 62.826 6.58 64.51 5.857 66.066 5.568 67.725 4.99 69.23 4.443 70.654 3.732 71.879 3.22 73.32 2.675 74.855 2.158 76.645 1.85 78.19 1.578 79.551 1.58 80.71 1.38 82.09 1.152 83.663 0.719 85.539 0.53 87.12 0.363 88.515 0.318 89.757 0.25 91.08 0.182 92.407 0.15 93.739 0.12 95.07 0.09 96.402 0.083 97.662 0.07 99.07 0.055 100.644 -0.066 102.497 0.04 104.07 0.136 105.489 0.379 106.76 0.61 108.1 0.842 109.447 1.139 110.789 1.43 112.13 1.722 113.473 1.879 114.75 2.36 116.15 2.926 117.8 4.002 119.731 4.77 121.35 5.448 122.779 5.973 124.039 6.72 125.37 7.508 126.774 8.483 128.175 9.41 129.55 10.339 130.928 11.225 132.29 12.29 133.63 13.421 135.053 14.751 136.553 16.04 137.83 17.249 139.028 18.596 140.031 19.77 141.1 20.855 142.088 21.826 143.128 22.85 144.01 23.792 144.821 24.637 145.506 25.67 146.22 26.819 147.014 28.27 147.779 29.46 148.52 30.533 149.188 31.406 149.898 32.5 150.46 33.656 151.054 35.062 151.51 36.24 151.96 37.284 152.359 38.145 152.687 39.21 153.04 40.425 153.443 41.755 153.847 43.15 154.22 44.702 154.635 46.546 155.016 48.11 155.39 49.516 155.726 50.701 156.037 52.11 156.36 53.679 156.72 55.433 157.195 57.1 157.44 58.743 157.681 60.313 157.739 62.04 157.83 63.939 157.93 66.034 157.843 68.03 157.99 70.038 158.138 72.043 158.56 74.05 158.72 76.043 158.879 77.958 158.897 80.03 158.95 82.271 159.007 84.619 159.021 87.03 159.04 89.608 159.06 92.452 159.055 95.03 159.06 97.441 159.065 99.619 159.068 102.03 159.07 104.608 159.072 107.365 159.191 110.03 159.07 112.702 158.948 115.564 158.627 118.04 158.34 120.193 158.09 122.055 157.79 124.06 157.49 126.065 157.19 128.16 156.866 130.07 156.54 131.818 156.241 133.412 155.935 135.08 155.62 136.748 155.305 138.507 154.981 140.08 154.65 141.495 154.353 142.762 154.053 144.1 153.74 145.439 153.427 146.871 152.991 148.11 152.77 149.16 152.583 150.161 152.602 151.05 152.43 151.809 152.283 152.441 152.08 153.13 151.86 153.828 151.637 154.522 151.37 155.21 151.1 155.899 150.83 156.58 150.538 157.26 150.24 157.943 149.941 158.553 149.625 159.3 149.31 160.186 148.937 161.345 148.627 162.24 148.17 163.069 147.746 163.779 147.149 164.51 146.7 165.174 146.293 165.792 145.945 166.44 145.58 167.088 145.215 167.841 144.85 168.4 144.51 168.838 144.243 169.189 143.94 169.54 143.74 169.818 143.581 170.039 143.523 170.32 143.37 170.673 143.177 171.122 142.84 171.48 142.65 171.769 142.497 172.072 142.423 172.29 142.29 172.458 142.188 172.539 142.07 172.7 141.96 172.902 141.823 173.156 141.715 173.42 141.55 173.76 141.337 174.56 140.77 174.56 140.77 " transform="matrix(1,0,0,1,271.47455411684933,222.71172048730364)"/>
</svg>